<svg width="90" height="103" viewBox="0 0 90 103" fill="none" xmlns="http://www.w3.org/2000/svg">
<g style="mix-blend-mode:difference">
<path d="M23.4045 10.7379C11.5064 16.5937 1.73436 21.4051 1.69706 21.4797C1.54787 21.6289 18.5931 31.028 19.0033 31.028C19.2271 31.028 20.0104 30.282 20.7563 29.3869C22.5839 27.149 27.47 23.4938 30.7895 21.9273C35.7501 19.5402 38.6967 18.9061 45.0374 18.9434C50.0353 18.9434 50.9677 19.0553 53.9889 19.9878C59.8074 21.7408 65.2529 25.1722 68.9827 29.3123L70.773 31.3264L79.7991 26.5895L88.7879 21.8527L67.0059 10.9617C55.0332 4.95667 45.1865 0.0706348 45.1119 0.0706348C45.0374 0.0706348 35.2653 4.88208 23.4045 10.7379Z" fill="#FFD1FB"/>
<path d="M0.130544 53.8917L0.0186501 81.1938L16.5417 89.3621C25.6424 93.8751 35.228 98.612 37.8761 99.9174L42.613 102.267V92.98V83.6555L40.86 83.4317C27.7684 81.6414 17.1384 72.3915 13.4459 59.561C12.7373 57.062 12.5881 55.682 12.5881 51.1689C12.5881 45.2385 13.1848 42.3666 15.3481 37.5551L16.4298 35.1681L12.6627 33.154C10.574 32.035 6.91878 30.0955 4.56901 28.8647L0.279736 26.5895L0.130544 53.8917Z" fill="#FFD1FB"/>
<path d="M81.7759 31.2518C77.3747 33.4151 73.7195 35.2427 73.6449 35.3173C73.5703 35.3919 74.0925 36.8838 74.8385 38.5995C76.8526 43.2617 77.412 46.6186 77.1883 52.437C77.0018 58.1063 76.4423 60.4934 74.1671 65.1557C69.5049 74.9278 60.7025 81.3803 49.4385 83.3571L46.9023 83.8047L47.0888 92.98L47.2752 102.155L52.3105 99.6936C55.0705 98.3136 60.889 95.5163 65.1783 93.4276C69.5049 91.3389 76.8153 87.7583 81.5148 85.4831L89.9815 81.3803V54.3392C89.9815 39.4573 89.9442 27.2982 89.9069 27.3355C89.8323 27.3355 86.1771 29.1258 81.7759 31.2518Z" fill="#FFD1FB"/>
<path d="M18.7423 32.6318C18.4812 33.0794 18.0336 33.788 17.7352 34.2356C17.2503 34.9816 17.6233 35.2053 30.1182 41.0984L42.986 47.2153V65.2303V83.2452H44.2541C46.6785 83.2452 46.5293 84.476 46.4174 65.7897C46.3801 56.4279 46.4174 48.4088 46.492 47.9986C46.6039 47.5883 47.3125 46.9542 48.0958 46.6185C50.5202 45.5742 72.2649 35.4291 72.3768 35.3172C72.4514 35.2426 72.0784 34.4221 71.5563 33.5269L70.5492 31.8485L57.756 37.8162L44.9255 43.7839L33.9599 38.6741C27.9549 35.8394 22.1737 33.154 21.1293 32.7064L19.2644 31.8485L18.7423 32.6318Z" fill="#FFD1FB"/>
</g>
</svg>
