<?xml version="1.0" standalone="no"?>
<!DOCTYPE svg PUBLIC "-//W3C//DTD SVG 20010904//EN"
 "http://www.w3.org/TR/2001/REC-SVG-20010904/DTD/svg10.dtd">
<svg version="1.0" xmlns="http://www.w3.org/2000/svg"
 width="1000.000000pt" height="306.000000pt" viewBox="0 0 1000.000000 306.000000"
 preserveAspectRatio="xMidYMid meet">

<g transform="translate(0.000000,306.000000) scale(0.100000,-0.100000)"
fill="#000000" stroke="none">
<path d="M1065 2604 c-319 -157 -581 -286 -582 -288 -4 -4 453 -256 464 -256
6 0 27 20 47 44 49 60 180 158 269 200 133 64 212 81 382 80 134 0 159 -3 240
-28 156 -47 302 -139 402 -250 l48 -54 242 127 241 127 -584 292 c-321 161
-585 292 -587 292 -2 0 -264 -129 -582 -286z"/>
<path d="M4045 2238 c-3 -7 -4 -166 -3 -353 l3 -340 240 0 240 0 0 65 0 65
-152 3 -153 3 -2 282 -3 282 -83 3 c-60 2 -84 -1 -87 -10z"/>
<path d="M6057 2244 c-4 -4 -7 -162 -7 -351 l0 -344 78 3 77 3 5 140 5 139
120 -141 120 -142 93 0 c67 -1 92 2 92 12 -1 6 -65 86 -144 176 l-144 164 134
164 c74 90 132 168 129 173 -4 6 -43 10 -89 10 l-82 0 -117 -151 -116 -151 -3
148 -3 149 -70 3 c-39 1 -74 0 -78 -4z"/>
<path d="M9070 1900 l0 -351 78 3 77 3 5 204 5 203 145 -203 146 -204 72 -3
72 -3 0 351 0 351 -77 -3 -78 -3 -3 -209 -2 -208 -150 211 -150 211 -70 0 -70
0 0 -350z"/>
<path d="M4804 2231 c-54 -14 -135 -64 -165 -102 -59 -74 -74 -124 -74 -239 0
-95 3 -110 28 -160 39 -75 81 -117 152 -151 52 -25 71 -29 150 -29 79 0 98 4
150 29 71 34 113 76 152 151 25 50 28 65 28 160 0 87 -4 113 -22 153 -35 75
-77 121 -144 157 -52 27 -74 33 -143 36 -44 2 -95 0 -112 -5z m183 -157 c100
-58 125 -231 46 -325 -31 -37 -95 -69 -138 -69 -73 0 -154 65 -175 138 -35
127 24 247 138 282 36 11 79 3 129 -26z"/>
<path d="M5564 2231 c-54 -14 -135 -64 -165 -102 -59 -74 -74 -124 -74 -239 0
-95 3 -110 28 -160 39 -75 88 -123 159 -155 55 -25 69 -27 162 -23 88 3 108 7
153 32 28 16 64 42 80 58 l28 30 -30 23 c-16 13 -43 32 -60 41 -30 16 -32 16
-77 -16 -136 -96 -299 2 -298 179 1 89 66 178 148 201 47 12 128 -8 157 -40
10 -11 26 -20 37 -20 19 0 117 60 118 71 0 17 -71 74 -120 97 -59 28 -183 39
-246 23z"/>
<path d="M6894 2231 c-54 -14 -135 -64 -165 -102 -59 -74 -74 -124 -74 -239 0
-95 3 -110 28 -160 39 -75 88 -123 159 -155 55 -25 69 -27 162 -23 88 3 108 7
153 32 28 16 64 42 80 58 l28 30 -30 23 c-16 13 -43 32 -60 41 -30 16 -32 16
-77 -16 -136 -96 -299 2 -298 179 1 89 66 178 148 201 47 12 128 -8 157 -40
10 -11 26 -20 37 -20 19 0 117 60 118 71 0 17 -71 74 -120 97 -59 28 -183 39
-246 23z"/>
<path d="M7360 1890 l0 -351 78 3 77 3 3 138 3 137 139 0 140 0 0 -140 0 -140
80 0 80 0 -2 348 -3 347 -75 0 -75 0 -3 -137 -3 -138 -139 0 -139 0 -3 138 -3
137 -77 3 -78 3 0 -351z"/>
<path d="M8770 1895 l0 -345 75 0 75 0 0 345 0 345 -75 0 -75 0 0 -345z"/>
<path d="M3375 2217 c-3 -6 -4 -161 -3 -342 l3 -330 205 0 c226 0 257 6 317
58 86 76 85 203 -2 274 -35 29 -36 32 -17 42 27 14 52 71 52 118 0 83 -64 151
-165 178 -77 20 -383 22 -390 2z m359 -148 c43 -34 31 -88 -25 -108 -18 -6
-63 -11 -100 -11 l-69 0 0 70 0 70 84 0 c69 0 88 -4 110 -21z m14 -258 c33
-17 45 -56 29 -89 -16 -36 -64 -51 -159 -51 l-78 -1 0 81 0 82 93 -5 c51 -3
103 -10 115 -17z"/>
<path d="M8259 2203 c-6 -16 -57 -163 -114 -328 -57 -165 -107 -308 -110 -318
-7 -16 -1 -18 76 -15 l83 3 20 63 20 62 122 0 122 0 22 -65 22 -65 79 0 c79 0
80 0 73 23 -18 59 -223 648 -229 657 -3 5 -44 10 -91 10 -83 0 -85 0 -95 -27z
m136 -275 c19 -61 35 -115 35 -120 0 -4 -34 -8 -75 -8 -41 0 -75 3 -75 7 0 10
74 233 77 233 1 0 18 -50 38 -112z"/>
<path d="M441 1447 l-3 -732 443 -219 c244 -121 501 -248 572 -283 l127 -63 0
249 0 250 -47 6 c-351 48 -636 296 -735 640 -19 67 -23 104 -23 225 0 159 16
236 74 365 l29 64 -101 54 c-56 30 -154 82 -217 115 l-115 61 -4 -732z"/>
<path d="M2630 2054 c-118 -58 -216 -107 -218 -109 -2 -2 12 -42 32 -88 54
-125 69 -215 63 -371 -5 -152 -20 -216 -81 -341 -125 -262 -361 -435 -663
-488 l-68 -12 5 -246 5 -246 135 66 c74 37 230 112 345 168 116 56 312 152
438 213 l227 110 0 725 c0 399 -1 725 -2 724 -2 0 -100 -48 -218 -105z"/>
<path d="M940 2017 c-7 -12 -19 -31 -27 -43 -13 -20 -3 -26 332 -184 l345
-164 0 -483 0 -483 34 0 c65 0 61 -33 58 468 -1 251 0 466 2 477 3 11 22 28
43 37 65 28 648 300 651 303 2 2 -8 24 -22 48 l-27 45 -343 -160 -344 -160
-294 137 c-161 76 -316 148 -344 160 l-50 23 -14 -21z"/>
<path d="M3360 931 c0 -243 1 -251 20 -251 18 0 20 8 22 108 l3 107 66 3 66 3
73 -111 c58 -88 77 -110 96 -110 13 0 24 2 24 5 0 3 -32 53 -71 111 -39 58
-69 107 -67 108 2 1 18 9 37 16 97 39 93 195 -7 237 -23 10 -81 18 -149 21
l-113 5 0 -252z m211 208 c74 -25 106 -88 75 -148 -24 -46 -68 -64 -161 -65
l-80 -1 -3 113 -3 112 69 0 c38 0 84 -5 103 -11z"/>
<path d="M3930 935 l0 -245 155 0 c131 0 155 2 155 15 0 13 -21 15 -130 15
l-130 0 0 105 0 105 120 0 c100 0 120 3 120 15 0 13 -20 15 -120 15 l-120 0 0
95 0 95 130 0 c109 0 130 2 130 15 0 13 -24 15 -155 15 l-155 0 0 -245z"/>
<path d="M4524 1161 c-45 -27 -64 -59 -64 -107 0 -71 39 -104 155 -133 98 -25
135 -55 135 -112 0 -32 -61 -86 -104 -95 -64 -11 -135 20 -164 73 -8 13 -15
15 -32 7 l-22 -10 27 -32 c42 -50 80 -66 160 -66 114 0 175 46 175 134 0 67
-26 90 -142 124 -100 30 -148 63 -148 102 0 41 22 73 65 94 52 25 94 19 136
-21 29 -27 69 -39 69 -20 0 15 -49 61 -75 71 -45 17 -137 12 -171 -9z"/>
<path d="M5010 935 l0 -245 155 0 c131 0 155 2 155 15 0 13 -21 15 -130 15
l-130 0 0 105 0 105 120 0 c100 0 120 3 120 15 0 13 -20 15 -120 15 l-120 0 0
95 0 95 130 0 c109 0 130 2 130 15 0 13 -24 15 -155 15 l-155 0 0 -245z"/>
<path d="M5600 953 c-111 -273 -108 -263 -82 -263 15 0 26 16 49 73 l29 72
116 3 115 3 29 -76 c24 -63 32 -75 51 -75 13 0 23 1 23 3 0 1 -44 110 -98 242
-80 198 -101 241 -118 243 -19 3 -32 -22 -114 -225z m165 38 c25 -62 44 -115
42 -117 -2 -3 -47 -3 -100 -2 l-95 3 39 95 c55 133 59 143 63 139 2 -2 25 -55
51 -118z"/>
<path d="M8820 953 c-111 -273 -108 -263 -82 -263 15 0 26 16 49 73 l29 72
116 3 115 3 29 -76 c24 -63 32 -75 51 -75 13 0 23 1 23 3 0 1 -44 110 -98 242
-80 198 -101 241 -118 243 -19 3 -32 -22 -114 -225z m165 38 c25 -62 44 -115
42 -117 -2 -3 -47 -3 -100 -2 l-95 3 39 95 c55 133 59 143 63 139 2 -2 25 -55
51 -118z"/>
<path d="M9340 935 l0 -247 128 4 c146 5 191 19 222 70 37 62 15 141 -48 167
l-31 13 34 33 c40 37 46 84 20 135 -26 50 -66 63 -202 68 l-123 4 0 -247z
m222 205 c42 -12 78 -52 78 -86 0 -13 -13 -38 -29 -56 -29 -32 -31 -33 -125
-36 l-96 -4 0 96 0 96 68 0 c37 0 84 -5 104 -10z m31 -224 c100 -42 93 -157
-12 -186 -20 -5 -71 -10 -113 -10 l-78 0 0 105 0 105 85 0 c50 0 99 -6 118
-14z"/>
<path d="M6130 925 l0 -245 25 0 25 0 0 105 0 106 67 -3 67 -3 68 -100 c52
-75 75 -101 93 -103 14 -2 25 0 25 3 0 4 -31 53 -70 108 l-70 102 34 17 c59
30 79 65 74 127 -4 45 -10 59 -35 82 -38 33 -107 49 -218 49 l-85 0 0 -245z
m211 205 c75 -21 110 -100 68 -154 -31 -40 -77 -56 -159 -56 l-70 0 0 110 0
110 63 0 c34 0 78 -5 98 -10z"/>
<path d="M6828 1158 c-49 -13 -116 -72 -139 -122 -12 -27 -19 -65 -19 -107 0
-86 36 -160 99 -204 37 -26 53 -30 120 -33 67 -4 84 -1 128 21 55 28 78 51 68
67 -7 11 -35 14 -35 3 0 -15 -69 -55 -110 -64 -63 -14 -116 5 -171 60 -37 36
-49 57 -58 98 -37 174 120 314 274 244 22 -10 46 -25 54 -34 14 -18 51 -23 51
-8 0 5 -16 23 -36 39 -57 47 -142 62 -226 40z"/>
<path d="M7310 925 c0 -228 1 -235 20 -235 19 0 20 7 20 115 l0 115 135 0 135
0 0 -115 c0 -108 1 -115 20 -115 19 0 20 7 20 235 0 228 -1 235 -20 235 -19 0
-20 -7 -20 -110 l0 -110 -135 0 -135 0 0 110 c0 103 -1 110 -20 110 -19 0 -20
-7 -20 -235z"/>
<path d="M8250 925 l0 -235 150 0 c127 0 150 2 150 15 0 13 -21 15 -130 15
l-130 0 0 220 c0 213 -1 220 -20 220 -19 0 -20 -7 -20 -235z"/>
</g>
</svg>
